<?xml version="1.0" encoding="UTF-8"?>
<svg id="Layer_1" data-name="Layer 1" xmlns="http://www.w3.org/2000/svg" xmlns:xlink="http://www.w3.org/1999/xlink" viewBox="0 0 101.093 101.093">
  <defs>
    <style>
      .cls-1 { fill: none;}
      .cls-2 { clip-path: url(#clippath);}
      .cls-3 { animation: oPcty 1600ms ease infinite; opacity: 0.9;}
        @keyframes oPcty {
          0% { opacity: 0; }
          80%{ opacity: 0.9; }
          100% { opacity: 0.9; }
        }
        #ray1 {animation-delay: 133ms; fill: #FF0000;}
        #ray2 {animation-delay: 266ms; fill: #FF8C00;}
        #ray3 {animation-delay: 400ms; fill: #FFD700;}
        #ray4 {animation-delay: 533ms; fill: #32CD32;}
        #ray5 {animation-delay: 666ms; fill: #00FF7F;}
        #ray6 {animation-delay: 800ms; fill: #00CED1;}
        #ray7 {animation-delay: 933ms; fill: #1E90FF;}
        #ray8 {animation-delay: 1066ms; fill: #4B0082;}
        #ray9 {animation-delay: 1200ms; fill: #8B00FF;}
        #ray10 {animation-delay: 1333ms; fill: #FF1493;}
        #ray11 {animation-delay: 1466ms; fill: #FF00FF;}
        #ray12 {animation-delay: 1600ms; fill: #DC143C;}
    </style>
    <clipPath id="clippath">
      <!-- Dodecagono (12 lati) - vertici calcolati con raggio 43 -->
      <polygon id="ray" class="cls-1" points="50.547 7.547 72.047 13.308 87.786 29.047 93.547 50.547 87.786 72.047 72.047 87.786 50.547 93.547 29.047 87.786 13.308 72.047 7.547 50.547 13.308 29.047 29.047 13.308 50.547 7.547"/>
    </clipPath>
  </defs>
  <g class="cls-2">
    <g>
      <!-- Dodecagono con 12 raggi colorati - ogni raggio copre 30 gradi -->
      <!-- Centro: (50.547, 50.547), Raggio: 43 -->
      
      <!-- Raggio 1: 0° - 30° (Rosso) - da (50.547, 7.547) a (72.047, 13.308) -->
      <polygon id="ray1" class="cls-3" points="50.547 50.547 50.547 7.547 72.047 13.308 50.547 50.547"/>
      
      <!-- Raggio 2: 30° - 60° (Arancione) - da (72.047, 13.308) a (87.786, 29.047) -->
      <polygon id="ray2" class="cls-3" points="50.547 50.547 72.047 13.308 87.786 29.047 50.547 50.547"/>
      
      <!-- Raggio 3: 60° - 90° (Giallo) - da (87.786, 29.047) a (93.547, 50.547) -->
      <polygon id="ray3" class="cls-3" points="50.547 50.547 87.786 29.047 93.547 50.547 50.547 50.547"/>
      
      <!-- Raggio 4: 90° - 120° (Verde chiaro) - da (93.547, 50.547) a (87.786, 72.047) -->
      <polygon id="ray4" class="cls-3" points="50.547 50.547 93.547 50.547 87.786 72.047 50.547 50.547"/>
      
      <!-- Raggio 5: 120° - 150° (Verde) - da (87.786, 72.047) a (72.047, 87.786) -->
      <polygon id="ray5" class="cls-3" points="50.547 50.547 87.786 72.047 72.047 87.786 50.547 50.547"/>
      
      <!-- Raggio 6: 150° - 180° (Turchese) - da (72.047, 87.786) a (50.547, 93.547) -->
      <polygon id="ray6" class="cls-3" points="50.547 50.547 72.047 87.786 50.547 93.547 50.547 50.547"/>
      
      <!-- Raggio 7: 180° - 210° (Blu) - da (50.547, 93.547) a (29.047, 87.786) -->
      <polygon id="ray7" class="cls-3" points="50.547 50.547 50.547 93.547 29.047 87.786 50.547 50.547"/>
      
      <!-- Raggio 8: 210° - 240° (Indaco) - da (29.047, 87.786) a (13.308, 72.047) -->
      <polygon id="ray8" class="cls-3" points="50.547 50.547 29.047 87.786 13.308 72.047 50.547 50.547"/>
      
      <!-- Raggio 9: 240° - 270° (Viola) - da (13.308, 72.047) a (7.547, 50.547) -->
      <polygon id="ray9" class="cls-3" points="50.547 50.547 13.308 72.047 7.547 50.547 50.547 50.547"/>
      
      <!-- Raggio 10: 270° - 300° (Rosa) - da (7.547, 50.547) a (13.308, 29.047) -->
      <polygon id="ray10" class="cls-3" points="50.547 50.547 7.547 50.547 13.308 29.047 50.547 50.547"/>
      
      <!-- Raggio 11: 300° - 330° (Magenta) - da (13.308, 29.047) a (29.047, 13.308) -->
      <polygon id="ray11" class="cls-3" points="50.547 50.547 13.308 29.047 29.047 13.308 50.547 50.547"/>
      
      <!-- Raggio 12: 330° - 360° (Rosso scuro) - da (29.047, 13.308) a (50.547, 7.547) -->
      <polygon id="ray12" class="cls-3" points="50.547 50.547 29.047 13.308 50.547 7.547 50.547 50.547"/>
    </g>
  </g>
</svg>
